<?xml version="1.0" encoding="utf-8"?><svg viewBox="0 0 56 56" xmlns="http://www.w3.org/2000/svg" xmlns:xlink="http://www.w3.org/1999/xlink"><style>:root>svg{display:none}:root>svg:target{display:block}</style><svg fill="none" viewBox="0 0 12 12" id="facebook-icon" xmlns="http://www.w3.org/2000/svg"><g clip-path="url(#aa)"><path d="M8 1.992h1.095V.085A14.146 14.146 0 0 0 7.499 0c-1.58 0-2.662.994-2.662 2.82V4.5H3.094v2.133h1.743V12h2.137V6.633h1.673L8.912 4.5H6.974V3.031c0-.617.166-1.039 1.025-1.039Z" fill="#000"/></g><defs><clipPath id="aa"><path fill="#fff" d="M0 0h12v12H0z"/></clipPath></defs></svg><svg fill="none" viewBox="0 0 25 25" id="fire-icon" xmlns="http://www.w3.org/2000/svg"><g clip-path="url(#ba)"><path d="M21.822 14.637c-.287-3.728-2.023-6.065-3.554-8.127-1.418-1.908-2.643-3.557-2.643-5.988a.522.522 0 0 0-.824-.424c-2.3 1.646-4.219 4.42-4.89 7.066-.465 1.843-.526 3.915-.535 5.283-2.124-.454-2.605-3.631-2.61-3.666a.523.523 0 0 0-.743-.395c-.112.054-2.734 1.386-2.887 6.707-.01.177-.011.354-.011.532 0 5.169 4.206 9.374 9.375 9.374.007 0 .015.002.02 0h.007c5.157-.015 9.348-4.214 9.348-9.374 0-.26-.053-.988-.053-.988Zm-9.322 9.32c-1.723 0-3.125-1.493-3.125-3.328 0-.063 0-.126.004-.203.02-.774.168-1.302.33-1.654.301.649.841 1.246 1.719 1.246a.52.52 0 0 0 .52-.521c0-.742.016-1.597.2-2.37.165-.684.558-1.412 1.055-1.996.221.758.653 1.371 1.074 1.97.602.856 1.226 1.742 1.335 3.252.006.09.013.18.013.276 0 1.835-1.402 3.329-3.125 3.329Z" fill="#fff"/></g><defs><clipPath id="ba"><path fill="#fff" d="M0 0h25v25H0z"/></clipPath></defs></svg><svg fill="none" viewBox="0 0 13 13" id="instagram-icon" xmlns="http://www.w3.org/2000/svg"><g clip-path="url(#ca)" fill="#000"><path d="M9.482 0H3.52A3.523 3.523 0 0 0 0 3.519v5.962A3.523 3.523 0 0 0 3.52 13h5.962A3.523 3.523 0 0 0 13 9.481V3.52A3.523 3.523 0 0 0 9.48 0Zm2.757 9.481a2.76 2.76 0 0 1-2.757 2.757H3.52A2.76 2.76 0 0 1 .763 9.48V3.52A2.76 2.76 0 0 1 3.52.762h5.962a2.76 2.76 0 0 1 2.757 2.757v5.962Z"/><path d="M6.5 2.945A3.559 3.559 0 0 0 2.947 6.5a3.559 3.559 0 0 0 3.555 3.555A3.559 3.559 0 0 0 10.055 6.5a3.559 3.559 0 0 0-3.554-3.555Zm0 6.347A2.796 2.796 0 0 1 3.709 6.5a2.796 2.796 0 0 1 2.793-2.793A2.796 2.796 0 0 1 9.293 6.5a2.796 2.796 0 0 1-2.792 2.792ZM10.14 1.683a1.052 1.052 0 0 0 0 2.1 1.052 1.052 0 0 0 0-2.1Zm0 1.339a.289.289 0 1 1 0-.578.289.289 0 0 1 0 .578Z"/></g><defs><clipPath id="ca"><path fill="#fff" d="M0 0h13v13H0z"/></clipPath></defs></svg><svg fill="none" viewBox="0 0 11 11" id="linkedin-icon" xmlns="http://www.w3.org/2000/svg"><g clip-path="url(#da)" fill="#000"><path d="M10.998 11h.003V6.965c0-1.973-.425-3.494-2.732-3.494-1.11 0-1.854.61-2.158 1.186H6.08V3.656H3.892V11H6.17V7.363c0-.957.181-1.883 1.367-1.883 1.168 0 1.185 1.093 1.185 1.945V11h2.276ZM.182 3.656h2.28V11H.183V3.656ZM1.322 0C.592 0 0 .592 0 1.32c0 .73.591 1.334 1.32 1.334.73 0 1.322-.604 1.322-1.333C2.643.59 2.05 0 1.322 0Z"/></g><defs><clipPath id="da"><path fill="#fff" d="M0 0h11v11H0z"/></clipPath></defs></svg><svg fill="none" viewBox="0 0 12 12" id="more-link-arrow" xmlns="http://www.w3.org/2000/svg"><g clip-path="url(#ea)"><path d="M.721 7.985c.05.008.1.012.149.011h8.466l-.185.086c-.18.085-.345.202-.485.343L6.292 10.8a.889.889 0 0 0-.125 1.138.859.859 0 0 0 1.288.112l4.293-4.293a.859.859 0 0 0 0-1.215L7.455 2.248a.859.859 0 0 0-1.288.086.889.889 0 0 0 .125 1.137l2.37 2.379c.126.126.27.231.429.313l.257.116H.917A.889.889 0 0 0 .011 7a.859.859 0 0 0 .71.985Z" fill="#fff"/></g><defs><clipPath id="ea"><path fill="#fff" transform="rotate(180 6 6)" d="M0 0h12v12H0z"/></clipPath></defs></svg><svg fill="none" viewBox="0 0 30 30" id="opinions-arrow" xmlns="http://www.w3.org/2000/svg"><path d="M6.25 13.75h14.825L16.538 8.3a1.251 1.251 0 1 1 1.924-1.6l6.25 7.5c.043.06.08.122.113.188 0 .062 0 .1.088.162.056.143.086.296.087.45a1.25 1.25 0 0 1-.087.45c0 .063 0 .1-.088.163-.033.065-.07.127-.113.187l-6.25 7.5a1.248 1.248 0 0 1-.962.45 1.25 1.25 0 0 1-.962-2.05l4.537-5.45H6.25a1.25 1.25 0 0 1 0-2.5Z" fill="#fff"/></svg><svg fill="none" viewBox="0 0 16 17" id="opinions-star" xmlns="http://www.w3.org/2000/svg"><path d="m14.19 6.165-3.968-.576-1.774-3.596a.502.502 0 0 0-.897 0L5.779 5.59l-3.967.576a.5.5 0 0 0-.277.853l2.87 2.799-.677 3.951a.5.5 0 0 0 .725.527L8 12.429l3.548 1.866a.5.5 0 0 0 .725-.527l-.678-3.951 2.87-2.799a.499.499 0 0 0-.276-.853Z" fill="#FEA250"/></svg><svg fill="none" viewBox="0 0 25 24" id="overview-check" xmlns="http://www.w3.org/2000/svg"><path d="M12.599 2c-5.514 0-10 4.486-10 10s4.486 10 10 10 10-4.486 10-10-4.486-10-10-10Zm-2 14.413-3.005-3A1 1 0 1 1 9.007 12l1.59 1.588L15.186 9a1 1 0 1 1 1.414 1.414l-6 5.999Z" fill="#2FAB73"/></svg><svg fill="none" viewBox="0 0 56 56" id="overview-location" xmlns="http://www.w3.org/2000/svg"><rect x=".5" y=".5" width="55" height="55" rx="27.5" fill="#FFECEC"/><path d="M35 25a7.001 7.001 0 0 0-11.95-4.95A6.998 6.998 0 0 0 21 25c0 1.387.41 2.677 1.105 3.765h-.008C24.457 32.46 28 38 28 38l5.903-9.235h-.007A6.98 6.98 0 0 0 35 25Zm-7 3a3 3 0 1 1 0-6 3 3 0 0 1 0 6Z" fill="#DC7000"/></svg><svg fill="none" viewBox="0 0 55 56" id="overview-server" xmlns="http://www.w3.org/2000/svg"><rect y=".5" width="55" height="55" rx="27.5" fill="#FFECEC"/><path d="M35.5 19h-16a2 2 0 0 0-2 2v4a2 2 0 0 0 2 2h16a2 2 0 0 0 2-2v-4a2 2 0 0 0-2-2Zm-5 4a1 1 0 1 1-2 0 1 1 0 0 1 2 0Zm4 0a1 1 0 1 1-2 0 1 1 0 0 1 2 0Zm1 6h-16a2 2 0 0 0-2 2v4a2 2 0 0 0 2 2h16a2 2 0 0 0 2-2v-4a2 2 0 0 0-2-2Zm-5 4a1 1 0 1 1-2 0 1 1 0 0 1 2 0Zm4 0a1 1 0 1 1-2 0 1 1 0 0 1 2 0Z" fill="#DC7000"/></svg><svg fill="none" viewBox="0 0 55 56" id="overview-user" xmlns="http://www.w3.org/2000/svg"><rect y=".5" width="55" height="55" rx="27.5" fill="#FFECEC"/><path fill-rule="evenodd" clip-rule="evenodd" d="M27.5 26.8a3.6 3.6 0 1 0 0-7.2 3.6 3.6 0 0 0 0 7.2Zm-5.101 10.8c-1.822 0-3.357-1.531-2.66-3.214a8.4 8.4 0 0 1 15.522 0c.697 1.683-.838 3.214-2.66 3.214H22.4Z" fill="#DC7000"/></svg><svg fill="none" viewBox="0 0 21 21" id="services-arrow" xmlns="http://www.w3.org/2000/svg"><g clip-path="url(#la)"><path d="M1.262 11.974c.086.014.173.02.26.02h14.815l-.323.15c-.316.149-.603.352-.849.6L11.011 16.9a1.555 1.555 0 0 0-.218 1.99 1.503 1.503 0 0 0 2.254.196l7.512-7.512a1.503 1.503 0 0 0 .002-2.125l-.002-.002-7.512-7.512a1.503 1.503 0 0 0-2.254.15 1.555 1.555 0 0 0 .218 1.99l4.147 4.163c.22.22.474.406.751.548l.45.203H1.606A1.555 1.555 0 0 0 .02 10.25c-.133.82.423 1.591 1.242 1.724Z" fill="#DC7000"/></g><defs><clipPath id="la"><path fill="#fff" transform="rotate(180 10.5 10.5)" d="M0 0h21v21H0z"/></clipPath></defs></svg><svg fill="none" viewBox="0 0 12 12" id="slider-arrow" xmlns="http://www.w3.org/2000/svg"><g clip-path="url(#ma)"><path d="M11.279 7.985a.858.858 0 0 1-.149.011H2.664l.185.086c.18.085.345.202.485.343L5.708 10.8a.889.889 0 0 1 .125 1.138.859.859 0 0 1-1.288.112L.252 7.756a.859.859 0 0 1 0-1.215l4.293-4.293a.859.859 0 0 1 1.288.086c.24.359.188.839-.125 1.137L3.338 5.85c-.126.126-.27.231-.429.313l-.257.116h8.431a.889.889 0 0 1 .906.721.859.859 0 0 1-.71.985Z" fill="#fff"/></g><defs><clipPath id="ma"><path fill="#fff" transform="matrix(1 0 0 -1 0 12)" d="M0 0h12v12H0z"/></clipPath></defs></svg><svg fill="none" viewBox="0 0 13 13" id="twitter-icon" xmlns="http://www.w3.org/2000/svg"><g clip-path="url(#na)"><path d="M13 2.47a5.556 5.556 0 0 1-1.535.42 2.65 2.65 0 0 0 1.172-1.473 5.325 5.325 0 0 1-1.69.645 2.664 2.664 0 0 0-4.61 1.822c0 .212.018.415.062.608A7.544 7.544 0 0 1 .906 1.705a2.669 2.669 0 0 0 .819 3.562A2.632 2.632 0 0 1 .52 4.938v.03c0 1.295.924 2.37 2.135 2.618a2.66 2.66 0 0 1-.699.088c-.17 0-.343-.01-.504-.045a2.69 2.69 0 0 0 2.49 1.856 5.355 5.355 0 0 1-3.304 1.137c-.219 0-.429-.01-.638-.037a7.502 7.502 0 0 0 4.088 1.196c4.904 0 7.586-4.062 7.586-7.584 0-.117-.004-.231-.01-.344a5.316 5.316 0 0 0 1.336-1.384Z" fill="#000"/></g><defs><clipPath id="na"><path fill="#fff" d="M0 0h13v13H0z"/></clipPath></defs></svg><svg fill="none" viewBox="0 0 39 4" id="underline" xmlns="http://www.w3.org/2000/svg"><rect width="31" height="4" rx="2" fill="#DC7000"/><rect x="34" width="5" height="4" rx="2" fill="#DC7000"/></svg></svg>